<svg xmlns="http://www.w3.org/2000/svg" viewBox="0 0 322.88 180.17"><defs><style>.cls-1{fill:#fff;}</style></defs><title>Asset 1</title><g id="Layer_2" data-name="Layer 2"><g id="Layer_1-2" data-name="Layer 1"><path class="cls-1" d="M322.88,180.17H0V0H322.88ZM6,174.17H316.88V6H6Z"/><path class="cls-1" d="M63.58,143.48v12.27H29V17.9H61.69V30.17H43.18V81H56.59v4.16H43.18v58.35Z"/><path class="cls-1" d="M123.06,17.9V155.75H109.65L91.52,41.13H89.26L91.9,84.75l1.13,71H79.63V17.9H93l18.13,114.63h2.27L110.79,88.9l-1.33-71Z"/><path class="cls-1" d="M181.79,30.17H166.12V155.75H152V30.17H136.28V17.9h45.51Z"/><path class="cls-1" d="M231.46,143.48v12.27H196.9V17.9h32.67V30.17H211.06V81h13.41v4.16H211.06v58.35Z"/><path class="cls-1" d="M294,155.75H279.61l-7.18-45.32c-.75-4.72-4-7.17-9.82-4.53v49.85H248.45V17.9h17c16.24,0,25.68,6.61,25.68,23.79V73.61c0,14.92-8.5,21.72-19.45,26.81l.19,2.27,11.52-1.51Zm-31.35-125V100.8l3.59-1.51C274.7,95.7,277,91.55,277,84.94V46.42c0-12.28-3.4-15.68-12.85-15.68Z"/></g></g></svg>